<svg xmlns="http://www.w3.org/2000/svg" viewBox="0 0 120 120">
  <defs>
    <linearGradient id="bg" x1="0" y1="0" x2="1" y2="1">
      <stop offset="0" stop-color="#C3A4FF"/><stop offset="1" stop-color="#8A63FF"/>
    </linearGradient>
    <clipPath id="c"><circle cx="60" cy="60" r="56"/></clipPath>
  </defs>
  <circle cx="60" cy="60" r="56" fill="url(#bg)"/>
  <g clip-path="url(#c)">
    <path d="M22 122 C22 96 38 84 60 84 C82 84 98 96 98 122 Z" fill="#FF6FB5"/>
    <path d="M40 92 h40 l-6 10 h-28 Z" fill="#FFD1E6"/>
    <path d="M52 84 h16 v10 a8 8 0 0 1 -16 0 Z" fill="#F5C9A4"/>
    <path d="M33 56 C30 84 34 92 38 96 L46 88 C42 80 41 66 43 56 Z" fill="#7A4A1E"/>
    <path d="M87 56 C90 84 86 92 82 96 L74 88 C78 80 79 66 77 56 Z" fill="#7A4A1E"/>
    <circle cx="60" cy="54" r="25" fill="#F5C9A4"/>
    <path d="M35 54 C35 34 45 27 60 27 C75 27 85 34 85 54 C85 42 78 36 60 36 C42 36 35 42 35 54 Z" fill="#7A4A1E"/>
    <path d="M44 30 L49 20 L55 28 L60 18 L65 28 L71 20 L76 30 C71 27 66 26 60 26 C54 26 49 27 44 30 Z" fill="#FFC531"/>
    <circle cx="60" cy="20" r="2.6" fill="#FF5A7E"/>
    <circle cx="49.5" cy="21.5" r="2" fill="#3B9EFF"/>
    <circle cx="70.5" cy="21.5" r="2" fill="#3B9EFF"/>
    <circle cx="51" cy="54" r="3" fill="#2B2140"/>
    <circle cx="69" cy="54" r="3" fill="#2B2140"/>
    <path d="M52 64 Q60 70 68 64" stroke="#2B2140" stroke-width="2.6" stroke-linecap="round" fill="none"/>
    <ellipse cx="44" cy="61" rx="4" ry="2.6" fill="#FF9FB0" opacity=".7"/>
    <ellipse cx="76" cy="61" rx="4" ry="2.6" fill="#FF9FB0" opacity=".7"/>
  </g>
  <circle cx="60" cy="60" r="56" fill="none" stroke="#FFFFFF" stroke-width="5"/>
</svg>
