<svg xmlns="http://www.w3.org/2000/svg" viewBox="0 0 120 120">
  <defs>
    <linearGradient id="bg" x1="0" y1="0" x2="1" y2="1">
      <stop offset="0" stop-color="#FF9FC7"/><stop offset="1" stop-color="#F0679E"/>
    </linearGradient>
    <clipPath id="c"><circle cx="60" cy="60" r="56"/></clipPath>
  </defs>
  <circle cx="60" cy="60" r="56" fill="url(#bg)"/>
  <g clip-path="url(#c)">
    <path d="M22 122 C22 96 38 84 60 84 C82 84 98 96 98 122 Z" fill="#8A63FF"/>
    <path d="M52 84 h16 v10 a8 8 0 0 1 -16 0 Z" fill="#C98H62"/>
    <path d="M52 84 h16 v10 a8 8 0 0 1 -16 0 Z" fill="#C98A62"/>
    <circle cx="31" cy="56" r="10" fill="#4A2F17"/>
    <circle cx="89" cy="56" r="10" fill="#4A2F17"/>
    <circle cx="31" cy="47" r="4.5" fill="#FFC531"/>
    <circle cx="89" cy="47" r="4.5" fill="#FFC531"/>
    <circle cx="60" cy="54" r="25" fill="#C98A62"/>
    <path d="M35 54 C35 34 45 27 60 27 C75 27 85 34 85 54 C85 42 78 36 60 36 C42 36 35 42 35 54 Z" fill="#4A2F17"/>
    <path d="M46 33 C50 29 56 28 60 28 L54 40 C50 38 47 36 46 33 Z" fill="#4A2F17"/>
    <circle cx="51" cy="54" r="3" fill="#2B2140"/>
    <circle cx="69" cy="54" r="3" fill="#2B2140"/>
    <path d="M52 64 Q60 70 68 64" stroke="#2B2140" stroke-width="2.6" stroke-linecap="round" fill="none"/>
    <ellipse cx="44" cy="61" rx="4" ry="2.6" fill="#FF9FB0" opacity=".75"/>
    <ellipse cx="76" cy="61" rx="4" ry="2.6" fill="#FF9FB0" opacity=".75"/>
  </g>
  <circle cx="60" cy="60" r="56" fill="none" stroke="#FFFFFF" stroke-width="5"/>
</svg>
