<svg xmlns="http://www.w3.org/2000/svg" viewBox="0 0 120 120">
  <defs>
    <linearGradient id="bg" x1="0" y1="0" x2="1" y2="1">
      <stop offset="0" stop-color="#38C7C1"/><stop offset="1" stop-color="#1E9490"/>
    </linearGradient>
    <clipPath id="c"><circle cx="60" cy="60" r="56"/></clipPath>
  </defs>
  <circle cx="60" cy="60" r="56" fill="url(#bg)"/>
  <g clip-path="url(#c)">
    <path d="M16 122 C20 96 34 86 60 86 C86 86 100 96 104 122 Z" fill="#5B21B6"/>
    <path d="M24 122 C24 98 40 88 60 88 C80 88 96 98 96 122 Z" fill="#8A63FF"/>
    <path d="M60 94 l2.6 5.4 6 .8 -4.3 4.2 1 6 -5.3 -2.9 -5.3 2.9 1 -6 -4.3 -4.2 6 -.8 Z" fill="#FFC531"/>
    <path d="M52 84 h16 v8 a8 8 0 0 1 -16 0 Z" fill="#E8B08C"/>
    <path d="M84 50 C90 62 90 78 84 90 L76 84 C80 74 80 62 78 54 Z" fill="#1E1B2E"/>
    <circle cx="60" cy="54" r="25" fill="#E8B08C"/>
    <path d="M35 53 C35 33 45 26 60 26 C75 26 85 33 85 53 C85 41 77 35 60 35 C43 35 35 41 35 53 Z" fill="#1E1B2E"/>
    <path fill-rule="evenodd" d="M38 46 C44 42 52 41 60 41 C68 41 76 42 82 46 C84 52 82 58 78 60 C72 62 64 62 60 62 C56 62 48 62 42 60 C38 58 36 52 38 46 Z M51 50 a5.5 4.6 0 1 0 0.01 0 Z M69 50 a5.5 4.6 0 1 0 0.01 0 Z" fill="#8A63FF"/>
    <circle cx="51" cy="54.6" r="2.7" fill="#2B2140"/>
    <circle cx="69" cy="54.6" r="2.7" fill="#2B2140"/>
    <path d="M52 68 Q60 74 68 68" stroke="#2B2140" stroke-width="2.6" stroke-linecap="round" fill="none"/>
  </g>
  <circle cx="60" cy="60" r="56" fill="none" stroke="#FFFFFF" stroke-width="5"/>
</svg>
