<svg xmlns="http://www.w3.org/2000/svg" viewBox="0 0 120 120">
  <defs>
    <linearGradient id="bg" x1="0" y1="0" x2="1" y2="1">
      <stop offset="0" stop-color="#4A4FA3"/><stop offset="1" stop-color="#23255C"/>
    </linearGradient>
    <clipPath id="c"><circle cx="60" cy="60" r="56"/></clipPath>
  </defs>
  <circle cx="60" cy="60" r="56" fill="url(#bg)"/>
  <g clip-path="url(#c)">
    <circle cx="24" cy="30" r="2" fill="#FFF6C9"/><circle cx="96" cy="24" r="2.6" fill="#FFF6C9"/>
    <circle cx="90" cy="86" r="2" fill="#FFF6C9"/><circle cx="18" cy="78" r="1.8" fill="#FFF6C9"/>
    <circle cx="38" cy="16" r="1.5" fill="#FFF6C9"/><circle cx="104" cy="56" r="1.7" fill="#FFF6C9"/>
    <path d="M22 122 C22 98 38 88 60 88 C82 88 98 98 98 122 Z" fill="#F2F5FA"/>
    <path d="M22 122 C22 98 38 88 60 88 C82 88 98 98 98 122 Z" fill="none" stroke="#D7DEE9" stroke-width="3"/>
    <rect x="50" y="94" width="20" height="12" rx="4" fill="#FF934A"/>
    <circle cx="60" cy="52" r="31" fill="#FFFFFF"/>
    <circle cx="60" cy="52" r="31" fill="none" stroke="#D7DEE9" stroke-width="3"/>
    <circle cx="60" cy="53" r="23" fill="#BEE3FF"/>
    <circle cx="60" cy="56" r="19" fill="#F5C9A4"/>
    <path d="M43 52 C43 40 50 35 60 35 C70 35 77 40 77 52 C77 45 70 41 60 41 C50 41 43 45 43 52 Z" fill="#3A2A18"/>
    <circle cx="53" cy="56" r="2.7" fill="#2B2140"/>
    <circle cx="67" cy="56" r="2.7" fill="#2B2140"/>
    <path d="M54 64 Q60 69 66 64" stroke="#2B2140" stroke-width="2.4" stroke-linecap="round" fill="none"/>
    <ellipse cx="47" cy="62" rx="3.4" ry="2.2" fill="#FF9FB0" opacity=".6"/>
    <ellipse cx="73" cy="62" rx="3.4" ry="2.2" fill="#FF9FB0" opacity=".6"/>
    <path d="M34 38 a31 31 0 0 1 15 -15" stroke="#FFFFFF" stroke-width="4" stroke-linecap="round" fill="none" opacity=".85"/>
    <circle cx="88" cy="34" r="5" fill="#FF934A"/><rect x="86.6" y="24" width="2.8" height="8" rx="1.4" fill="#FF934A"/>
  </g>
  <circle cx="60" cy="60" r="56" fill="none" stroke="#FFFFFF" stroke-width="5"/>
</svg>
